<?xml version="1.0" encoding="utf-8"?>
<!-- Generator: Adobe Illustrator 21.0.0, SVG Export Plug-In . SVG Version: 6.00 Build 0)  -->
<svg version="1.1" id="Capa_1" xmlns="http://www.w3.org/2000/svg" xmlns:xlink="http://www.w3.org/1999/xlink" x="0px" y="0px"
	 viewBox="0 0 340.2 481.9" enable-background="new 0 0 340.2 481.9" xml:space="preserve">
<g>
	<polygon fill="#BEAE1E" points="264.7,87 238.9,129.1 268.8,178 324.5,87 264.7,87 	"/>
	<g>
		<path fill="#FFFFFF" d="M231,137.7L206.4,178c-1.6,2.5-2.4,5.4-2.4,8.6c0,3.1,0.8,6.1,2.4,8.6l57.3,93.8h59.7L231,137.7L231,137.7
			z"/>
		<path fill="#FFFFFF" d="M296,340.3l24.6-40.3c1.6-2.5,2.4-5.4,2.4-8.6c0-3.1-0.8-6.1-2.4-8.6L263.3,189h-59.7L296,340.3L296,340.3
			z"/>
	</g>
	<polygon fill="#BEAE1E" points="263.3,393.8 289.1,351.7 259.2,302.8 203.5,393.8 263.3,393.8 	"/>
	<path fill="#BEAE1E" d="M168.4,232.3L127.9,208c-2.5-1.6-5.5-2.3-8.6-2.3c-3.1,0-6.1,0.8-8.6,2.4l-93.4,58l0.4,59.7L168.4,232.3
		L168.4,232.3z"/>
	<polygon fill="#FFFFFF" points="222.1,264.7 179.9,239.2 131.2,269.4 222.5,324.5 222.1,264.7 	"/>
</g>
</svg>
